<svg width="36" height="36" viewBox="0 0 36 36" fill="none" xmlns="http://www.w3.org/2000/svg">
<path d="M18 36C27.9411 36 36 27.9411 36 18C36 8.05888 27.9411 0 18 0C8.05888 0 0 8.05888 0 18C0 27.9411 8.05888 36 18 36Z" fill="#535353"/>
<path d="M1 16C1.10312 9.02659 10.1607 -0.951908 21 1.3328C11.8531 0.842665 3.25483 7.70706 1 16Z" fill="white"/>
<path d="M12.0289 24.736L15.1815 11.7908C15.2944 11.3273 15.7203 11 16.2105 11H16.9646C17.6394 11 18.1416 11.606 17.9977 12.2465L15.7947 22.05C15.6507 22.6905 16.1529 23.2965 16.8278 23.2965H23.7961C24.293 23.2965 24.7228 23.6327 24.8291 24.1044L24.9751 24.7529C25.1195 25.3937 24.6172 26 23.9421 26H13.0579C12.3755 26 11.8718 25.3813 12.0289 24.736Z" fill="white"/>
</svg>
