<svg width="32" height="32" viewBox="0 0 32 32" fill="none" xmlns="http://www.w3.org/2000/svg">
<path d="M6.65743 17.312C6.36779 17.3117 6.08594 17.4057 5.85449 17.5798C5.62305 17.754 5.45459 17.9987 5.37461 18.2771C5.29462 18.5555 5.30745 18.8523 5.41116 19.1227C5.51487 19.3932 5.70382 19.6225 5.94943 19.776L9.53343 23.36C9.65731 23.4838 9.80436 23.582 9.96618 23.6489C10.128 23.7159 10.3014 23.7503 10.4766 23.7503C10.6517 23.7502 10.8251 23.7156 10.9869 23.6486C11.1487 23.5815 11.2956 23.4832 11.4194 23.3593C11.5432 23.2354 11.6414 23.0884 11.7084 22.9266C11.7753 22.7647 11.8098 22.5913 11.8097 22.4162C11.8096 22.241 11.7751 22.0676 11.708 21.9059C11.6409 21.7441 11.5426 21.5971 11.4188 21.4733L9.92409 19.98H19.9908C20.3444 19.98 20.6835 19.8395 20.9336 19.5895C21.1836 19.3394 21.3241 19.0003 21.3241 18.6466C21.3241 18.293 21.1836 17.9539 20.9336 17.7038C20.6835 17.4538 20.3444 17.3133 19.9908 17.3133H6.65743V17.312Z" fill="#E34242"/>
<path d="M25.3427 14.688C25.6323 14.6883 25.9142 14.5943 26.1456 14.4201C26.3771 14.246 26.5455 14.0012 26.6255 13.7229C26.7055 13.4445 26.6927 13.1477 26.589 12.8772C26.4853 12.6068 26.2963 12.3775 26.0507 12.224L22.4667 8.64C22.2165 8.38998 21.8772 8.2496 21.5236 8.24973C21.1699 8.24985 20.8307 8.39048 20.5807 8.64066C20.3307 8.89085 20.1903 9.23011 20.1904 9.5838C20.1905 9.93749 20.3312 10.2767 20.5814 10.5267L22.076 12.02H12.0094C11.6557 12.02 11.3166 12.1605 11.0665 12.4105C10.8165 12.6606 10.676 12.9997 10.676 13.3533C10.676 13.707 10.8165 14.0461 11.0665 14.2961C11.3166 14.5462 11.6557 14.6867 12.0094 14.6867H25.3427V14.688Z" fill="#4643EB"/>
</svg>
