<svg width="24" height="24" viewBox="0 0 24 24" fill="none" xmlns="http://www.w3.org/2000/svg">
<path d="M4.61538 22.1538H7.85908C6.35574 20.3365 5.53487 18.0509 5.53846 15.6923C5.53846 12.2585 7.24246 9.22154 9.85292 7.38462H0V17.5385C0 18.7625 0.486262 19.9365 1.35181 20.802C2.21737 21.6676 3.39131 22.1538 4.61538 22.1538V22.1538ZM22.1538 5.53846H0V4.61538C0 3.39131 0.486262 2.21737 1.35181 1.35181C2.21737 0.486262 3.39131 0 4.61538 0H17.5385C18.7625 0 19.9365 0.486262 20.802 1.35181C21.6676 2.21737 22.1538 3.39131 22.1538 4.61538V5.53846ZM24 15.6923C24 16.7833 23.7851 17.8636 23.3676 18.8715C22.9501 19.8795 22.3382 20.7953 21.5667 21.5667C20.7953 22.3382 19.8795 22.9501 18.8715 23.3676C17.8636 23.7851 16.7833 24 15.6923 24C14.6013 24 13.521 23.7851 12.5131 23.3676C11.5052 22.9501 10.5893 22.3382 9.81788 21.5667C9.04644 20.7953 8.4345 19.8795 8.017 18.8715C7.5995 17.8636 7.38462 16.7833 7.38462 15.6923C7.38462 13.489 8.25989 11.3759 9.81788 9.81788C11.3759 8.25989 13.489 7.38462 15.6923 7.38462C17.8956 7.38462 20.0087 8.25989 21.5667 9.81788C23.1247 11.3759 24 13.489 24 15.6923V15.6923ZM15.6923 19.1631C15.3863 19.1631 15.0928 19.2846 14.8764 19.501C14.66 19.7174 14.5385 20.0109 14.5385 20.3169C14.5385 20.6229 14.66 20.9164 14.8764 21.1328C15.0928 21.3492 15.3863 21.4708 15.6923 21.4708C15.9983 21.4708 16.2918 21.3492 16.5082 21.1328C16.7246 20.9164 16.8462 20.6229 16.8462 20.3169C16.8462 20.0109 16.7246 19.7174 16.5082 19.501C16.2918 19.2846 15.9983 19.1631 15.6923 19.1631ZM15.6923 10.1594C13.7575 10.1594 12.2511 11.6695 12.2714 13.7686C12.2738 14.0134 12.3734 14.2472 12.5483 14.4186C12.7231 14.59 12.9589 14.6849 13.2037 14.6825C13.4485 14.68 13.6823 14.5804 13.8537 14.4056C14.0251 14.2307 14.12 13.995 14.1175 13.7502C14.1065 12.6812 14.7822 12.0055 15.6923 12.0055C16.5637 12.0055 17.2671 12.7292 17.2671 13.7594C17.2671 14.1323 17.1378 14.3409 16.6025 14.7637L16.0911 15.1606C15.1569 15.9065 14.7692 16.4843 14.7692 17.5385C14.7688 17.7691 14.8548 17.9916 15.0102 18.1621C15.1656 18.3325 15.3792 18.4386 15.6089 18.4595C15.8386 18.4803 16.0678 18.4144 16.2514 18.2747C16.4349 18.135 16.5595 17.9316 16.6006 17.7046L16.6209 17.4166C16.6523 17.1434 16.8055 16.9477 17.2597 16.5895L17.7711 16.1926C18.7182 15.4357 19.1132 14.8412 19.1132 13.7594C19.1132 11.7212 17.5957 10.1594 15.6923 10.1594V10.1594Z" fill="#535353"/>
</svg>
