<svg width="36" height="36" viewBox="0 0 36 36" fill="none" xmlns="http://www.w3.org/2000/svg">
<path d="M14 4H6C4.89543 4 4 4.89543 4 6V14C4 15.1046 4.89543 16 6 16H14C15.1046 16 16 15.1046 16 14V6C16 4.89543 15.1046 4 14 4Z" fill="#535353"/>
<path d="M30 4H22C20.8954 4 20 4.89543 20 6V14C20 15.1046 20.8954 16 22 16H30C31.1046 16 32 15.1046 32 14V6C32 4.89543 31.1046 4 30 4Z" fill="#535353"/>
<path d="M14 20H6C4.89543 20 4 20.8954 4 22V30C4 31.1046 4.89543 32 6 32H14C15.1046 32 16 31.1046 16 30V22C16 20.8954 15.1046 20 14 20Z" fill="#535353"/>
<path d="M30 20H22C20.8954 20 20 20.8954 20 22V30C20 31.1046 20.8954 32 22 32H30C31.1046 32 32 31.1046 32 30V22C32 20.8954 31.1046 20 30 20Z" fill="#535353"/>
</svg>
