<svg width="36" height="36" viewBox="0 0 36 36" fill="none" xmlns="http://www.w3.org/2000/svg">
<path d="M11.4198 4.48633C11.5061 3.99682 11.9729 3.66997 12.4624 3.75629L28.4163 6.56939C28.9058 6.6557 29.2327 7.12249 29.1463 7.61199L25.1491 30.2813C25.0408 30.8953 24.3562 31.2159 23.8153 30.9059L17.0852 27.0491C16.9071 26.9469 16.6993 26.9088 16.4966 26.9411L8.44677 28.2192C7.83624 28.3162 7.31196 27.7828 7.41931 27.1741L11.4198 4.48633Z" fill="#3A3A3A"/>
<path d="M18.3271 14.023C18.5479 13.802 18.9211 13.8679 19.0531 14.1511L22.702 21.9789C22.8973 22.3979 22.4095 22.8038 22.0331 22.5356L17.9141 19.6016C17.8037 19.5229 17.6638 19.4982 17.5331 19.5343L12.6591 20.8826C12.2136 21.0059 11.894 20.4577 12.2209 20.1308L18.3271 14.023Z" fill="white"/>
</svg>
