<svg width="32" height="40" viewBox="0 0 32 40" fill="none" xmlns="http://www.w3.org/2000/svg">
<path d="M6.07757 0.984808C6.17348 0.440914 6.69213 0.0777449 7.23603 0.173648L30.8714 4.3412C31.4153 4.43711 31.7785 4.95577 31.6826 5.49966L25.8511 38.5715C25.7311 39.2522 24.9731 39.6088 24.3721 39.2672L14.1751 33.4709C13.9788 33.3593 13.7506 33.3175 13.5275 33.3521L1.38084 35.2386C0.70351 35.3438 0.123535 34.7518 0.242561 34.0768L6.07757 0.984808Z" fill="#535353"/>
<path d="M16.5892 14.7063C16.8366 14.4278 17.2907 14.5078 17.4279 14.8542L22.2125 26.9341C22.3879 27.3769 21.9036 27.7909 21.4935 27.5488L15.5537 24.0422C15.4496 23.9807 15.3267 23.9591 15.2079 23.9812L8.42699 25.2448C7.95881 25.3321 7.6453 24.7774 7.96154 24.4213L16.5892 14.7063Z" fill="white"/>
</svg>
