<svg width="26" height="26" viewBox="0 0 26 26" fill="none" xmlns="http://www.w3.org/2000/svg">
<path d="M10.0991 18.0364C9.84022 17.5935 10.1186 17 10.5855 17H15.4145C15.8814 17 16.1598 17.5935 15.9009 18.0365L14.3423 20.7032C14.234 20.8885 14.0515 21 13.8561 21H12.1439C11.9485 21 11.766 20.8885 11.6577 20.7032L10.0991 18.0364Z" fill="white"/>
<path d="M24.8769 9.41632L17.9027 16.8919C17.7253 17.082 17.4503 17.0127 17.3475 16.7519L17.036 15.962C16.9793 15.8179 16.9902 15.6471 17.0645 15.5158L22.9144 5.1883C23.0705 4.91265 23.4089 4.9456 23.5281 5.24806L24.9639 8.8899C25.0347 9.06949 24.999 9.28542 24.8769 9.41632Z" fill="white"/>
<path d="M8.95884 15.8564L8.5748 16.7665C8.47116 17.0121 8.21627 17.0763 8.04641 16.8997L1.12746 9.70311C0.998891 9.56939 0.962781 9.33915 1.04121 9.15325L2.69503 5.23344C2.81752 4.94314 3.13844 4.91856 3.28761 5.18804L8.93681 15.3943C9.01229 15.5307 9.0208 15.7093 8.95884 15.8564Z" fill="white"/>
<path d="M13 20C16.866 20 20 16.866 20 13C20 9.13401 16.866 6 13 6C9.13401 6 6 9.13401 6 13C6 16.866 9.13401 20 13 20Z" fill="white"/>
</svg>
