<svg width="24" height="24" viewBox="0 0 24 24" fill="none" xmlns="http://www.w3.org/2000/svg">
<g clip-path="url(#clip0_1542_35)">
<path d="M15.521 9.62C15.521 9.90047 15.4096 10.1694 15.2113 10.3678C15.013 10.5661 14.744 10.6775 14.4635 10.6775C14.183 10.6775 13.9141 10.5661 13.7157 10.3678C13.5174 10.1694 13.406 9.90047 13.406 9.62C13.406 9.33953 13.5174 9.07055 13.7157 8.87223C13.9141 8.67391 14.183 8.5625 14.4635 8.5625C14.744 8.5625 15.013 8.67391 15.2113 8.87223C15.4096 9.07055 15.521 9.33953 15.521 9.62V9.62ZM24 12C24 18.627 18.627 24 12 24C11.65 24 11.303 23.985 10.96 23.956C12.979 22.066 13.508 18.895 13.508 18.895L10.282 17.842C10.282 17.842 8.783 21.072 4.683 21.512C3.22487 20.3922 2.04405 18.9517 1.23197 17.3023C0.419895 15.6528 -0.00164086 13.8385 4.79993e-06 12C4.79993e-06 5.373 5.373 0 12 0C18.627 0 24 5.373 24 12ZM8.62801 6.606C7.39801 6.476 6.743 5.776 6.598 4.575C6.456 5.734 5.828 6.455 4.566 6.606C5.734 6.833 6.396 7.524 6.597 8.638C6.577 7.484 7.26301 6.813 8.62801 6.606V6.606ZM16.414 11.813C17.524 9.33 16.806 7.561 15.181 5.567C13.138 7.067 11.422 8.59 11.545 10.716C10.17 11.391 9.284 11.922 8.398 13.005L11.177 14.108L10.809 15.375L14.446 16.437L14.889 15.256L17.714 15.907C17.728 14.411 17.334 12.81 16.414 11.813V11.813Z" fill="#535353"/>
</g>
<defs>
<clipPath id="clip0_1542_35">
<rect width="24" height="24" fill="white"/>
</clipPath>
</defs>
</svg>
