<svg width="78" height="78" viewBox="0 0 78 78" fill="none" xmlns="http://www.w3.org/2000/svg">
<path d="M77.6921 37.648L0.170898 36.9481V62.5603C0.194732 64.909 2.35707 67.1536 5.6309 69.121L10.8222 71.5758C12.4082 72.1781 14.1394 72.7328 16.0071 73.2354L23.7746 74.8865C25.4884 75.1616 27.2737 75.3891 29.1046 75.5798L49.3152 75.7705C51.1437 75.6177 52.9674 75.4118 54.7839 75.153L62.5189 73.6211C64.2621 73.1817 65.9817 72.6538 67.6712 72.0395L72.8149 69.6605C76.0801 67.7256 77.7159 65.494 77.6921 63.1323V37.648Z" fill="#CCD6DC"/>
<path d="M49.5846 66.8373C49.4914 57.3906 44.8396 54.9856 39.1304 54.9358C33.4234 54.8838 28.8193 57.2043 28.9124 66.651C28.9471 70.1306 29.0121 73.0643 29.1053 75.5776C32.3639 75.9156 35.7764 76.128 39.3146 76.1605C42.7813 76.1908 46.1201 76.0435 49.3159 75.7705C49.5261 73.5973 49.6236 70.6983 49.5846 66.8373V66.8373ZM23.6539 62.595L23.6561 62.8268L23.6626 63.6155L23.6691 64.2026L23.6713 64.3435C23.6734 64.4561 23.6713 64.4388 23.6713 64.3435L23.6691 64.2026L23.6626 63.6155L23.6561 62.8268L23.6539 62.595L23.6518 62.3306C23.6041 57.6073 15.8301 55.1741 15.8756 59.8996V59.9798L15.8799 60.4218L15.8843 60.7641L15.8951 61.7825L15.8973 61.9276L16.0078 73.2333C18.4041 73.8768 20.9954 74.438 23.7753 74.8843L23.6539 62.4195V62.595V62.595ZM62.3896 60.4456L62.4004 61.542V61.6005L62.4069 62.1855C62.4091 62.4411 62.4091 62.5105 62.4069 62.1855L62.4004 61.6005V61.542L62.3896 60.4456L62.3874 60.32C62.3398 55.5966 54.6113 57.8868 54.6589 62.6101V62.6881L54.7824 75.153C57.3859 74.7788 59.9679 74.2675 62.5174 73.6211L62.3874 60.4045L62.3896 60.4456V60.4456ZM10.6843 57.4903C10.6366 52.767 5.44745 50.3576 5.49295 55.081V55.1698L5.62945 69.121C7.09411 70.0006 8.84261 70.8218 10.8208 71.5758L10.7081 60.047C10.7146 60.4976 10.7211 61.308 10.6843 57.4903ZM67.5311 58.0038L67.5571 60.4673V60.3655V60.4673L67.6719 72.0373C69.6349 71.3136 71.3661 70.5185 72.8156 69.6583L72.6769 55.6876C72.6314 50.9643 67.4856 53.2805 67.5311 58.0038ZM6.43978 11.3208C6.15246 11.3208 5.87691 11.4349 5.67375 11.6381C5.47058 11.8413 5.35645 12.1168 5.35645 12.4041V39.2058C5.35645 39.4931 5.47058 39.7687 5.67375 39.9718C5.87691 40.175 6.15246 40.2891 6.43978 40.2891C6.7271 40.2891 7.00265 40.175 7.20581 39.9718C7.40898 39.7687 7.52311 39.4931 7.52311 39.2058V12.4041C7.52311 11.804 7.03995 11.3208 6.43978 11.3208Z" fill="#8E8E8E"/>
<path d="M6.94887 12.8613C10.1512 13.4442 14.9265 15.249 16.1485 15.9467C17.3705 16.6443 16.6144 16.9953 15.4509 17.5175C14.2852 18.0418 7.99537 19.7297 7.06587 19.9052C6.13203 20.0828 6.94887 12.8613 6.94887 12.8613V12.8613Z" fill="#4C4C4C"/>
<path d="M25.9329 6.448C25.6456 6.448 25.3701 6.56213 25.1669 6.7653C24.9637 6.96846 24.8496 7.24401 24.8496 7.53133V34.333C24.8496 34.6203 24.9637 34.8959 25.1669 35.099C25.3701 35.3022 25.6456 35.4163 25.9329 35.4163C26.2203 35.4163 26.4958 35.3022 26.699 35.099C26.9021 34.8959 27.0163 34.6203 27.0163 34.333V7.53133C27.0163 7.24401 26.9021 6.96846 26.699 6.7653C26.4958 6.56213 26.2203 6.448 25.9329 6.448Z" fill="#8E8E8E"/>
<path d="M26.4395 7.98853C29.6419 8.57136 34.4172 10.3762 35.6414 11.076C36.8634 11.7737 36.1072 12.1247 34.9437 12.6469C33.778 13.1712 27.4904 14.859 26.5587 15.0345C25.6227 15.21 26.4395 7.98853 26.4395 7.98853V7.98853Z" fill="#4D4D4D"/>
<path d="M46.2347 6.448C45.9474 6.448 45.6718 6.56213 45.4687 6.7653C45.2655 6.96846 45.1514 7.24401 45.1514 7.53133V34.333C45.1514 34.6203 45.2655 34.8959 45.4687 35.099C45.6718 35.3022 45.9474 35.4163 46.2347 35.4163C46.522 35.4163 46.7976 35.3022 47.0007 35.099C47.2039 34.8959 47.318 34.6203 47.318 34.333V7.53133C47.318 7.24401 47.2039 6.96846 47.0007 6.7653C46.7976 6.56213 46.522 6.448 46.2347 6.448Z" fill="#8E8E8E"/>
<path d="M46.7434 7.98853C49.9457 8.57136 54.7188 10.3762 55.943 11.076C57.165 11.7737 56.4088 12.1247 55.2453 12.6469C54.0818 13.1712 47.792 14.859 46.8582 15.0345C45.9244 15.21 46.7434 7.98853 46.7434 7.98853V7.98853Z" fill="#4C4C4C"/>
<path d="M65.7259 11.3208C65.4386 11.3208 65.163 11.4349 64.9599 11.6381C64.7567 11.8413 64.6426 12.1168 64.6426 12.4041V39.2058C64.6426 39.4931 64.7567 39.7687 64.9599 39.9718C65.163 40.175 65.4386 40.2891 65.7259 40.2891C66.0132 40.2891 66.2888 40.175 66.4919 39.9718C66.6951 39.7687 66.8092 39.4931 66.8092 39.2058V12.4041C66.8092 12.1168 66.6951 11.8413 66.4919 11.6381C66.2888 11.4349 66.0132 11.3208 65.7259 11.3208Z" fill="#8E8E8E"/>
<path d="M66.2346 12.8613C69.4369 13.4442 74.2101 15.249 75.4343 15.9488C76.6563 16.6465 75.9001 16.9975 74.7366 17.5197C73.5731 18.044 67.2833 19.7318 66.3494 19.9073C65.4177 20.0828 66.2346 12.8613 66.2346 12.8613V12.8613Z" fill="#4D4D4D"/>
<path d="M77.6921 37.7954C77.7636 44.9714 60.4692 50.6307 39.0626 50.4379C17.6537 50.245 0.242406 44.2672 0.173072 37.0955C0.101572 29.9195 17.3981 24.2602 38.8047 24.453C60.2092 24.648 77.6206 30.6215 77.6921 37.7954Z" fill="#E9EFF3"/>
<path d="M72.0573 39.4529C72.1201 45.942 57.3499 51.0684 39.0676 50.9059C20.781 50.739 5.90678 45.344 5.84395 38.8549C5.78112 32.3679 20.5491 27.2415 38.8358 27.4062C57.1159 27.573 71.9944 32.9659 72.0573 39.4529Z" fill="#525253"/>
<path d="M57.9933 41.9857L70.625 33.4512L66.7249 31.0548C66.7249 31.0548 58.86 38.4085 56.2773 40.9088C54.3793 39.923 51.7858 39.0953 48.7243 38.5168L54.0088 27.027L48.6723 26.39L46.302 38.1312C43.8593 37.7998 41.3981 37.6232 38.9331 37.6025C37.0015 37.5858 35.0702 37.6624 33.146 37.8322L30.5828 26.2253L25.2593 26.7692L30.6565 38.1117C27.1031 38.6013 24.0763 39.4203 21.9118 40.4625C19.158 37.804 11.41 30.5543 11.41 30.5543L7.55762 32.8813L20.1546 41.5047C18.9825 42.3648 18.3195 43.3247 18.3281 44.3452C18.3671 48.1715 27.6513 51.3587 39.0696 51.4627C50.4836 51.5667 59.7115 48.5463 59.6746 44.7178C59.666 43.7537 59.0658 42.8285 57.9933 41.9857V41.9857Z" fill="#E9EFF3"/>
<path d="M57.2584 45.201C57.2865 48.0632 49.1724 50.3079 39.1385 50.2169C29.1047 50.1259 20.9472 47.7339 20.919 44.8717C20.8909 42.0117 29.0029 39.767 39.0367 39.858C49.0684 39.9469 57.228 42.341 57.2584 45.201V45.201Z" fill="#585957"/>
</svg>
