<svg width="36" height="36" viewBox="0 0 36 36" fill="none" xmlns="http://www.w3.org/2000/svg">
<path d="M29.1429 12H6.85714C5.83147 12 5 12.7675 5 13.7143V22.2857C5 23.2325 5.83147 24 6.85714 24H29.1429C30.1685 24 31 23.2325 31 22.2857V13.7143C31 12.7675 30.1685 12 29.1429 12Z" fill="#929292"/>
<path d="M29 15.75C29 15.3358 29.2985 15 29.6667 15H31V21H29.6667C29.2985 21 29 20.6642 29 20.25V15.75Z" fill="#D0D0D0"/>
<path d="M7 20.25C7 20.6642 6.70152 21 6.33333 21H5V15H6.33333C6.70152 15 7 15.3358 7 15.75V20.25Z" fill="#D0D0D0"/>
</svg>
